<?xml version="1.0" encoding="UTF-8"?>
<svg xmlns="http://www.w3.org/2000/svg" xmlns:xlink="http://www.w3.org/1999/xlink" width="810pt" height="809.999993pt" viewBox="0 0 810 809.999993" version="1.2">
<g id="surface1">
<path style=" stroke:none;fill-rule:nonzero;fill:rgb(93.728638%,37.649536%,14.898682%);fill-opacity:1;" d="M 405 0 C 398.371094 0 391.746094 0.164062 385.128906 0.488281 C 378.507812 0.8125 371.898438 1.300781 365.304688 1.949219 C 358.707031 2.601562 352.128906 3.410156 345.574219 4.382812 C 339.019531 5.355469 332.488281 6.488281 325.988281 7.78125 C 319.488281 9.074219 313.023438 10.527344 306.59375 12.136719 C 300.164062 13.746094 293.777344 15.515625 287.433594 17.4375 C 281.09375 19.363281 274.800781 21.441406 268.558594 23.675781 C 262.320312 25.90625 256.136719 28.292969 250.011719 30.828125 C 243.890625 33.367188 237.832031 36.050781 231.839844 38.882812 C 225.847656 41.71875 219.929688 44.699219 214.085938 47.820312 C 208.238281 50.945312 202.472656 54.210938 196.789062 57.621094 C 191.101562 61.027344 185.503906 64.574219 179.992188 68.253906 C 174.484375 71.9375 169.066406 75.753906 163.742188 79.699219 C 158.417969 83.648438 153.195312 87.726562 148.070312 91.929688 C 142.945312 96.136719 137.929688 100.464844 133.019531 104.914062 C 128.109375 109.367188 123.308594 113.933594 118.621094 118.621094 C 113.933594 123.308594 109.367188 128.109375 104.914062 133.019531 C 100.464844 137.929688 96.136719 142.945312 91.929688 148.070312 C 87.726562 153.195312 83.648438 158.417969 79.699219 163.742188 C 75.753906 169.066406 71.9375 174.484375 68.253906 179.992188 C 64.574219 185.503906 61.027344 191.101562 57.621094 196.789062 C 54.210938 202.472656 50.945312 208.238281 47.820312 214.085938 C 44.699219 219.929688 41.71875 225.847656 38.882812 231.839844 C 36.050781 237.832031 33.367188 243.890625 30.828125 250.011719 C 28.292969 256.136719 25.90625 262.320312 23.675781 268.558594 C 21.441406 274.800781 19.363281 281.09375 17.4375 287.433594 C 15.515625 293.777344 13.746094 300.164062 12.136719 306.59375 C 10.527344 313.023438 9.074219 319.488281 7.78125 325.988281 C 6.488281 332.488281 5.355469 339.019531 4.382812 345.574219 C 3.410156 352.128906 2.601562 358.707031 1.949219 365.304688 C 1.300781 371.898438 0.8125 378.507812 0.488281 385.128906 C 0.164062 391.746094 0 398.371094 0 405 C 0 411.628906 0.164062 418.253906 0.488281 424.871094 C 0.8125 431.492188 1.300781 438.101562 1.949219 444.695312 C 2.601562 451.292969 3.410156 457.871094 4.382812 464.425781 C 5.355469 470.980469 6.488281 477.511719 7.78125 484.011719 C 9.074219 490.511719 10.527344 496.976562 12.136719 503.40625 C 13.746094 509.835938 15.515625 516.222656 17.4375 522.566406 C 19.363281 528.90625 21.441406 535.199219 23.675781 541.441406 C 25.90625 547.679688 28.292969 553.863281 30.828125 559.988281 C 33.367188 566.109375 36.050781 572.167969 38.882812 578.160156 C 41.71875 584.152344 44.699219 590.070312 47.820312 595.914062 C 50.945312 601.761719 54.210938 607.527344 57.621094 613.210938 C 61.027344 618.898438 64.574219 624.496094 68.253906 630.007812 C 71.9375 635.515625 75.753906 640.933594 79.699219 646.257812 C 83.648438 651.582031 87.726562 656.804688 91.929688 661.929688 C 96.136719 667.054688 100.464844 672.070312 104.914062 676.980469 C 109.367188 681.890625 113.933594 686.691406 118.621094 691.378906 C 123.308594 696.066406 128.109375 700.632812 133.019531 705.085938 C 137.929688 709.535156 142.945312 713.863281 148.070312 718.070312 C 153.195312 722.273438 158.417969 726.351562 163.742188 730.300781 C 169.066406 734.246094 174.484375 738.0625 179.992188 741.746094 C 185.503906 745.425781 191.101562 748.972656 196.789062 752.378906 C 202.472656 755.789062 208.238281 759.054688 214.085938 762.179688 C 219.929688 765.300781 225.847656 768.28125 231.839844 771.117188 C 237.832031 773.949219 243.890625 776.632812 250.011719 779.171875 C 256.136719 781.707031 262.320312 784.09375 268.558594 786.324219 C 274.800781 788.558594 281.09375 790.636719 287.433594 792.5625 C 293.777344 794.484375 300.164062 796.253906 306.59375 797.863281 C 313.023438 799.472656 319.488281 800.925781 325.988281 802.21875 C 332.488281 803.511719 339.019531 804.644531 345.574219 805.617188 C 352.128906 806.589844 358.707031 807.398438 365.304688 808.050781 C 371.898438 808.699219 378.507812 809.1875 385.128906 809.511719 C 391.746094 809.835938 398.371094 810 405 810 C 411.628906 810 418.253906 809.835938 424.871094 809.511719 C 431.492188 809.1875 438.101562 808.699219 444.695312 808.050781 C 451.292969 807.398438 457.871094 806.589844 464.425781 805.617188 C 470.980469 804.644531 477.511719 803.511719 484.011719 802.21875 C 490.511719 800.925781 496.976562 799.472656 503.40625 797.863281 C 509.835938 796.253906 516.222656 794.484375 522.566406 792.5625 C 528.90625 790.636719 535.199219 788.558594 541.441406 786.324219 C 547.679688 784.09375 553.863281 781.707031 559.988281 779.171875 C 566.109375 776.632812 572.167969 773.949219 578.160156 771.117188 C 584.152344 768.28125 590.070312 765.300781 595.914062 762.179688 C 601.761719 759.054688 607.527344 755.789062 613.210938 752.378906 C 618.898438 748.972656 624.496094 745.425781 630.007812 741.746094 C 635.515625 738.0625 640.933594 734.246094 646.257812 730.300781 C 651.582031 726.351562 656.804688 722.273438 661.929688 718.070312 C 667.054688 713.863281 672.070312 709.535156 676.980469 705.085938 C 681.890625 700.632812 686.691406 696.066406 691.378906 691.378906 C 696.066406 686.691406 700.632812 681.890625 705.085938 676.980469 C 709.535156 672.070312 713.863281 667.054688 718.070312 661.929688 C 722.273438 656.804688 726.351562 651.582031 730.300781 646.257812 C 734.246094 640.933594 738.0625 635.515625 741.746094 630.007812 C 745.425781 624.496094 748.972656 618.898438 752.378906 613.210938 C 755.789062 607.527344 759.054688 601.761719 762.179688 595.914062 C 765.300781 590.070312 768.28125 584.152344 771.117188 578.160156 C 773.949219 572.167969 776.632812 566.109375 779.171875 559.988281 C 781.707031 553.863281 784.09375 547.679688 786.324219 541.441406 C 788.558594 535.199219 790.636719 528.90625 792.5625 522.566406 C 794.484375 516.222656 796.253906 509.835938 797.863281 503.40625 C 799.472656 496.976562 800.925781 490.511719 802.21875 484.011719 C 803.511719 477.511719 804.644531 470.980469 805.617188 464.425781 C 806.589844 457.871094 807.398438 451.292969 808.050781 444.695312 C 808.699219 438.101562 809.1875 431.492188 809.511719 424.871094 C 809.835938 418.253906 810 411.628906 810 405 C 810 398.371094 809.835938 391.746094 809.511719 385.128906 C 809.1875 378.507812 808.699219 371.898438 808.050781 365.304688 C 807.398438 358.707031 806.589844 352.128906 805.617188 345.574219 C 804.644531 339.019531 803.511719 332.488281 802.21875 325.988281 C 800.925781 319.488281 799.472656 313.023438 797.863281 306.59375 C 796.253906 300.164062 794.484375 293.777344 792.5625 287.433594 C 790.636719 281.09375 788.558594 274.800781 786.324219 268.558594 C 784.09375 262.320312 781.707031 256.136719 779.171875 250.011719 C 776.632812 243.890625 773.949219 237.832031 771.117188 231.839844 C 768.28125 225.847656 765.300781 219.929688 762.179688 214.085938 C 759.054688 208.238281 755.789062 202.472656 752.378906 196.789062 C 748.972656 191.101562 745.425781 185.503906 741.746094 179.992188 C 738.0625 174.484375 734.246094 169.066406 730.300781 163.742188 C 726.351562 158.417969 722.273438 153.195312 718.070312 148.070312 C 713.863281 142.945312 709.535156 137.929688 705.085938 133.019531 C 700.632812 128.109375 696.066406 123.308594 691.378906 118.621094 C 686.691406 113.933594 681.890625 109.367188 676.980469 104.914062 C 672.070312 100.464844 667.054688 96.136719 661.929688 91.929688 C 656.804688 87.726562 651.582031 83.648438 646.257812 79.699219 C 640.933594 75.753906 635.515625 71.9375 630.007812 68.253906 C 624.496094 64.574219 618.898438 61.027344 613.210938 57.621094 C 607.527344 54.210938 601.761719 50.945312 595.914062 47.820312 C 590.070312 44.699219 584.152344 41.71875 578.160156 38.882812 C 572.167969 36.050781 566.109375 33.367188 559.988281 30.828125 C 553.863281 28.292969 547.679688 25.90625 541.441406 23.675781 C 535.199219 21.441406 528.90625 19.363281 522.566406 17.4375 C 516.222656 15.515625 509.835938 13.746094 503.40625 12.136719 C 496.976562 10.527344 490.511719 9.074219 484.011719 7.78125 C 477.511719 6.488281 470.980469 5.355469 464.425781 4.382812 C 457.871094 3.410156 451.292969 2.601562 444.695312 1.949219 C 438.101562 1.300781 431.492188 0.8125 424.871094 0.488281 C 418.253906 0.164062 411.628906 0 405 0 Z M 405 0 "/>
<path style=" stroke:none;fill-rule:nonzero;fill:rgb(19.999695%,19.999695%,19.999695%);fill-opacity:1;" d="M 111.714844 91.304688 C 106.296875 91.304688 100.820312 94.015625 96.726562 98.109375 C 92.6875 102.203125 91.304688 107.625 91.304688 113.097656 C 91.304688 118.519531 94.015625 125.324219 98.109375 129.417969 C 105.019531 136.324219 112.515625 141.695312 120.328125 146.054688 L 172.152344 521.890625 L 95.292969 598.75 C 91.679688 602.363281 90.402344 607.679688 91.945312 612.515625 C 93.539062 617.351562 97.632812 620.964844 102.679688 621.761719 L 174.753906 633.828125 L 186.765625 705.851562 C 187.566406 710.898438 191.179688 714.992188 196.015625 716.585938 C 200.851562 718.128906 206.167969 716.851562 209.78125 713.238281 L 286.640625 636.378906 L 662.316406 688.148438 C 666.625 695.910156 672.046875 703.351562 679.113281 710.421875 C 683.207031 714.511719 690.011719 717.222656 695.484375 717.222656 C 700.90625 717.222656 706.328125 715.84375 710.421875 711.75 C 719.933594 703.617188 719.933594 690.011719 711.75 681.878906 C 685.917969 655.992188 692.722656 617.882812 696.8125 575.679688 C 707.710938 457.3125 702.234375 393.367188 665.507812 314.492188 C 647.859375 281.855469 619.371094 239.8125 588.117188 239.652344 L 631.597656 196.175781 C 632.5 195.273438 633.296875 194.261719 633.882812 193.144531 C 638.027344 195.324219 642.386719 196.761719 647.0625 197.183594 C 656.046875 198.089844 665.667969 194.792969 672.417969 188.042969 C 677.679688 182.78125 680.019531 177.835938 684.429688 170.289062 C 688.789062 162.742188 693.679688 153.707031 698.300781 144.988281 C 707.605469 127.449219 715.789062 110.972656 715.789062 110.972656 C 717.863281 106.828125 717.703125 101.9375 715.3125 97.949219 C 712.917969 93.964844 708.71875 91.464844 704.042969 91.304688 C 701.757812 91.253906 699.472656 91.730469 697.453125 92.792969 C 697.453125 92.792969 680.65625 101.351562 663.007812 110.761719 C 654.1875 115.492188 645.148438 120.433594 637.707031 124.6875 C 633.988281 126.8125 630.691406 128.777344 627.929688 130.53125 C 625.164062 132.339844 623.304688 133.347656 620.488281 136.113281 C 610.335938 146.265625 609.167969 161.574219 615.597656 174.488281 C 614.375 175.125 613.3125 175.976562 612.355469 176.933594 L 570.472656 218.816406 C 568.027344 188.148438 527.789062 160.5625 495.421875 144.351562 C 438.28125 118.519531 389.277344 107.625 323.953125 107.625 C 296.738281 107.625 266.867188 109.007812 231.46875 113.097656 C 213.769531 114.425781 197.449219 117.136719 182.460938 117.136719 C 160.667969 117.136719 141.640625 113.097656 126.707031 98.109375 C 122.613281 92.6875 117.136719 91.304688 111.714844 91.304688 Z M 315.820312 134.835938 L 323.953125 134.835938 C 386.566406 134.835938 430.097656 144.351562 481.8125 168.855469 C 521.253906 187.882812 543.046875 211.058594 541.664062 221.902344 C 540.335938 228.703125 537.625 236.890625 526.726562 236.890625 C 521.304688 236.890625 515.832031 235.5625 511.792969 231.46875 C 479.101562 205.636719 404.265625 152.539062 315.820312 134.835938 Z M 671.566406 137.125 C 667.898438 144.03125 664.125 151.050781 660.882812 156.683594 C 656.789062 163.644531 652.007812 169.917969 653.175781 168.800781 C 651.742188 170.183594 651.210938 170.289062 649.613281 170.128906 C 648.074219 169.972656 645.414062 168.960938 642.492188 166.039062 C 637.550781 161.09375 639.355469 155.726562 639.78125 155.355469 C 638.664062 156.417969 640.367188 154.875 642.597656 153.492188 C 644.777344 152.113281 647.753906 150.304688 651.261719 148.285156 C 657.054688 144.988281 664.390625 141.003906 671.566406 137.125 Z M 257.300781 155.25 C 344.363281 155.25 434.191406 204.253906 496.804688 253.261719 C 505.574219 259.480469 515.460938 263.253906 525.453125 263.890625 L 263.519531 525.769531 L 198.671875 514.980469 L 149.296875 157.109375 C 160.722656 159.710938 172.363281 160.722656 183.84375 160.722656 C 202.871094 160.722656 220.570312 158.011719 238.273438 156.628906 C 245.074219 156.628906 250.496094 155.25 257.300781 155.25 Z M 586.628906 266.867188 L 587.957031 266.867188 C 598.855469 266.867188 621.976562 288.605469 639.675781 326.714844 C 664.179688 378.433594 673.691406 423.347656 673.691406 491.382812 C 655.992188 404.265625 602.894531 329.425781 577.0625 296.738281 C 572.96875 291.316406 570.257812 281.804688 573.023438 276.328125 C 574.351562 275 575.734375 269.578125 586.628906 266.867188 Z M 544.585938 283.183594 C 545.011719 293.816406 548.625 304.550781 555.269531 313.109375 C 606.988281 379.761719 660.085938 477.722656 651.898438 570.257812 C 649.347656 598.109375 644.832031 629.578125 651.367188 659.183594 L 293.550781 609.855469 L 282.757812 545.011719 Z M 191.230469 541.292969 L 239.917969 549.421875 L 181.878906 607.414062 L 133.191406 599.28125 Z M 259.105469 568.609375 L 267.238281 617.296875 L 209.25 675.339844 L 201.117188 626.652344 Z M 259.105469 568.609375 "/>
</g>
</svg>
